<mxfile host="app.diagrams.net" modified="2023-12-23T13:29:47.492Z" agent="Mozilla/5.0 (Windows NT 10.0; Win64; x64) AppleWebKit/537.36 (KHTML, like Gecko) Chrome/120.0.0.0 Safari/537.36" etag="X_0OW9gSgyCzWIgALJVH" version="22.1.11" type="device">
  <diagram name="Page-1" id="3o_zP0FsSDewhOUWBddw">
    <mxGraphModel dx="1687" dy="986" grid="1" gridSize="10" guides="1" tooltips="1" connect="1" arrows="1" fold="1" page="1" pageScale="1" pageWidth="827" pageHeight="1169" math="0" shadow="0">
      <root>
        <mxCell id="0" />
        <mxCell id="1" parent="0" />
        <mxCell id="b5jM1LghDiHe0aDupFQt-1" value="" style="swimlane;startSize=0;direction=south;" vertex="1" parent="1">
          <mxGeometry x="150" y="70" width="510" height="690" as="geometry" />
        </mxCell>
        <mxCell id="b5jM1LghDiHe0aDupFQt-4" value="Access to web app" style="ellipse;whiteSpace=wrap;html=1;" vertex="1" parent="b5jM1LghDiHe0aDupFQt-1">
          <mxGeometry x="115" y="110" width="90" height="90" as="geometry" />
        </mxCell>
        <mxCell id="b5jM1LghDiHe0aDupFQt-5" value="Save INR &lt;br&gt;results" style="ellipse;whiteSpace=wrap;html=1;" vertex="1" parent="b5jM1LghDiHe0aDupFQt-1">
          <mxGeometry x="115" y="340" width="100" height="90" as="geometry" />
        </mxCell>
        <mxCell id="b5jM1LghDiHe0aDupFQt-6" value="Send INR &lt;br&gt;results" style="ellipse;whiteSpace=wrap;html=1;" vertex="1" parent="b5jM1LghDiHe0aDupFQt-1">
          <mxGeometry x="110" y="470" width="100" height="90" as="geometry" />
        </mxCell>
        <mxCell id="b5jM1LghDiHe0aDupFQt-10" value="User rights" style="text;html=1;strokeColor=none;fillColor=none;align=center;verticalAlign=middle;whiteSpace=wrap;rounded=0;" vertex="1" parent="b5jM1LghDiHe0aDupFQt-1">
          <mxGeometry x="20" y="20" width="60" height="30" as="geometry" />
        </mxCell>
        <mxCell id="b5jM1LghDiHe0aDupFQt-11" value="Browse INR results" style="ellipse;whiteSpace=wrap;html=1;" vertex="1" parent="b5jM1LghDiHe0aDupFQt-1">
          <mxGeometry x="115" y="230" width="90" height="90" as="geometry" />
        </mxCell>
        <mxCell id="b5jM1LghDiHe0aDupFQt-12" value="Log In" style="ellipse;whiteSpace=wrap;html=1;" vertex="1" parent="b5jM1LghDiHe0aDupFQt-1">
          <mxGeometry x="330" y="140" width="90" height="90" as="geometry" />
        </mxCell>
        <mxCell id="b5jM1LghDiHe0aDupFQt-13" value="Sign Up" style="ellipse;whiteSpace=wrap;html=1;" vertex="1" parent="b5jM1LghDiHe0aDupFQt-1">
          <mxGeometry x="330" y="30" width="90" height="90" as="geometry" />
        </mxCell>
        <mxCell id="b5jM1LghDiHe0aDupFQt-15" value="&amp;lt;&amp;lt;include&amp;gt;&amp;gt;" style="html=1;verticalAlign=bottom;labelBackgroundColor=none;endArrow=open;endFill=0;dashed=1;rounded=0;entryX=0;entryY=0.5;entryDx=0;entryDy=0;exitX=1;exitY=0.5;exitDx=0;exitDy=0;" edge="1" parent="b5jM1LghDiHe0aDupFQt-1" source="b5jM1LghDiHe0aDupFQt-4" target="b5jM1LghDiHe0aDupFQt-13">
          <mxGeometry x="-0.1623" y="14" width="160" relative="1" as="geometry">
            <mxPoint x="200" y="110" as="sourcePoint" />
            <mxPoint x="360" y="110" as="targetPoint" />
            <mxPoint as="offset" />
          </mxGeometry>
        </mxCell>
        <mxCell id="b5jM1LghDiHe0aDupFQt-16" value="&amp;lt;&amp;lt;include&amp;gt;&amp;gt;" style="html=1;verticalAlign=bottom;labelBackgroundColor=none;endArrow=open;endFill=0;dashed=1;rounded=0;entryX=0;entryY=0.5;entryDx=0;entryDy=0;exitX=1;exitY=0.5;exitDx=0;exitDy=0;" edge="1" parent="b5jM1LghDiHe0aDupFQt-1" source="b5jM1LghDiHe0aDupFQt-4" target="b5jM1LghDiHe0aDupFQt-12">
          <mxGeometry x="0.1114" y="7" width="160" relative="1" as="geometry">
            <mxPoint x="210" y="120" as="sourcePoint" />
            <mxPoint x="340" y="85" as="targetPoint" />
            <mxPoint as="offset" />
          </mxGeometry>
        </mxCell>
        <mxCell id="b5jM1LghDiHe0aDupFQt-2" value="User" style="shape=umlActor;verticalLabelPosition=bottom;verticalAlign=top;html=1;outlineConnect=0;" vertex="1" parent="1">
          <mxGeometry x="60" y="250" width="30" height="60" as="geometry" />
        </mxCell>
        <mxCell id="b5jM1LghDiHe0aDupFQt-7" value="" style="endArrow=none;html=1;rounded=0;entryX=0;entryY=0.5;entryDx=0;entryDy=0;exitX=1;exitY=0.3333333333333333;exitDx=0;exitDy=0;exitPerimeter=0;" edge="1" parent="1" source="b5jM1LghDiHe0aDupFQt-2" target="b5jM1LghDiHe0aDupFQt-4">
          <mxGeometry width="50" height="50" relative="1" as="geometry">
            <mxPoint x="340" y="450" as="sourcePoint" />
            <mxPoint x="390" y="400" as="targetPoint" />
          </mxGeometry>
        </mxCell>
        <mxCell id="b5jM1LghDiHe0aDupFQt-8" value="" style="endArrow=none;html=1;rounded=0;entryX=0;entryY=0.5;entryDx=0;entryDy=0;exitX=1;exitY=0.3333333333333333;exitDx=0;exitDy=0;exitPerimeter=0;" edge="1" parent="1" source="b5jM1LghDiHe0aDupFQt-2" target="b5jM1LghDiHe0aDupFQt-5">
          <mxGeometry width="50" height="50" relative="1" as="geometry">
            <mxPoint x="100" y="280" as="sourcePoint" />
            <mxPoint x="275" y="205" as="targetPoint" />
          </mxGeometry>
        </mxCell>
        <mxCell id="b5jM1LghDiHe0aDupFQt-9" value="" style="endArrow=none;html=1;rounded=0;entryX=0;entryY=0.5;entryDx=0;entryDy=0;exitX=1;exitY=0.3333333333333333;exitDx=0;exitDy=0;exitPerimeter=0;" edge="1" parent="1" source="b5jM1LghDiHe0aDupFQt-2" target="b5jM1LghDiHe0aDupFQt-6">
          <mxGeometry width="50" height="50" relative="1" as="geometry">
            <mxPoint x="100" y="280" as="sourcePoint" />
            <mxPoint x="270" y="345" as="targetPoint" />
          </mxGeometry>
        </mxCell>
      </root>
    </mxGraphModel>
  </diagram>
</mxfile>
